<svg width="18" height="16" viewBox="0 0 18 16" fill="none" xmlns="http://www.w3.org/2000/svg">
<path fill-rule="evenodd" clip-rule="evenodd" d="M9.00001 3.50065C6.31267 3.45532 3.53334 5.33332 1.78601 7.25665C1.40613 7.67839 1.40613 8.31892 1.78601 8.74065C3.49534 10.6233 6.26667 12.5447 9.00001 12.4987C11.7333 12.5447 14.5053 10.6233 16.216 8.74065C16.5959 8.31892 16.5959 7.67839 16.216 7.25665C14.4667 5.33332 11.6873 3.45532 9.00001 3.50065Z" stroke="#404040" stroke-width="1.25" stroke-linecap="round" stroke-linejoin="round"/>
<path fill-rule="evenodd" clip-rule="evenodd" d="M11.5 8C11.4996 9.38062 10.3802 10.4996 8.99956 10.4993C7.61893 10.4991 6.49988 9.37973 6.5 7.99911C6.50012 6.61848 7.61937 5.49933 9 5.49933C9.66321 5.49915 10.2993 5.76258 10.7682 6.2316C11.2371 6.70063 11.5004 7.33678 11.5 8V8Z" stroke="#404040" stroke-width="1.25" stroke-linecap="round" stroke-linejoin="round"/>
</svg>
