<svg width="18" height="16" viewBox="0 0 18 16" fill="none" xmlns="http://www.w3.org/2000/svg">
<path d="M2.85535 14L15.3553 2" stroke="#404040" stroke-width="1.25" stroke-linecap="round" stroke-linejoin="round"/>
<path d="M6.97601 12.7007C7.63122 12.9042 8.31395 13.0051 9.00001 13C11.7333 13.046 14.5053 11.1247 16.216 9.24201C16.5959 8.82028 16.5959 8.17975 16.216 7.75801C15.5963 7.07815 14.9097 6.46238 14.1667 5.92001" stroke="#404040" stroke-width="1.25" stroke-linecap="round" stroke-linejoin="round"/>
<path d="M10.6087 4.18799C10.0826 4.05709 9.54205 3.99391 9.00001 3.99999C6.31267 3.95532 3.53334 5.83465 1.78601 7.75665C1.40613 8.17839 1.40613 8.81892 1.78601 9.24065C2.31729 9.82225 2.89717 10.3575 3.51934 10.8407" stroke="#404040" stroke-width="1.25" stroke-linecap="round" stroke-linejoin="round"/>
<path d="M6.5 8.5C6.49982 7.8369 6.76316 7.20092 7.23204 6.73204C7.70092 6.26316 8.3369 5.99982 9 6" stroke="#404040" stroke-width="1.25" stroke-linecap="round" stroke-linejoin="round"/>
<path d="M11.5 8.49933V8.49933C11.5002 9.16249 11.2369 9.79854 10.768 10.2675C10.2991 10.7365 9.66316 11 9 11" stroke="#404040" stroke-width="1.25" stroke-linecap="round" stroke-linejoin="round"/>
</svg>
